<?xml version="1.0" standalone="no"?>
<!DOCTYPE svg PUBLIC "-//W3C//DTD SVG 20010904//EN"
 "http://www.w3.org/TR/2001/REC-SVG-20010904/DTD/svg10.dtd">
<svg version="1.0" xmlns="http://www.w3.org/2000/svg"
 width="425.000000pt" height="425.000000pt" viewBox="0 0 425.000000 425.000000"
 preserveAspectRatio="xMidYMid meet">
<metadata>
Created by potrace 1.11, written by Peter Selinger 2001-2013
</metadata>
<g transform="translate(0.000000,425.000000) scale(0.100000,-0.100000)"
fill="#000000" stroke="none">
<path d="M1855 3731 c-143 -26 -311 -74 -332 -94 -3 -4 -12 -7 -19 -7 -14 0
-119 -50 -189 -89 -445 -252 -745 -708 -805 -1224 -15 -129 -8 -367 15 -477 9
-41 18 -86 21 -100 12 -60 69 -213 115 -309 113 -238 272 -430 497 -598 53
-40 101 -73 106 -73 5 0 17 -6 25 -14 24 -20 214 -114 245 -121 6 -1 22 -7 36
-12 204 -85 562 -115 820 -71 203 35 439 127 605 236 39 25 72 49 75 52 3 3
23 18 45 35 70 51 175 154 241 235 16 19 34 40 40 47 35 37 133 199 179 296
75 160 123 318 143 475 9 74 9 371 -1 442 -23 172 -111 433 -190 565 -97 161
-182 269 -300 380 -116 110 -108 102 -207 170 -152 104 -364 196 -536 234
-146 32 -152 33 -344 36 -147 3 -206 0 -285 -14z"/>
</g>
</svg>
